#!OML:ASF F:\VICON\USERDATA\INSTALL\rory3\rory3.ASF
:FULLY-SPECIFIED
:DEGREES
35
root 0.6153963722320146 17.572495990067345 -14.335994988998639 8.831395034628652 -2.279363576063801 -1.129559274067643
lfemur -18.363507265921807 6.184033798845758 -19.187003343710753
ltibia 23.125405573243263
lfoot -10.815701566195564 7.735127852616994
ltoes 5.815906967669758
rfemur -19.894906115912914 -2.00461997005275 19.477804144668905
rtibia 26.0351066397307
rfoot -13.689300994242492 -4.185690672516648
rtoes 11.632197437238732
lowerback 0.9415998987918552 -0.1965352658786017 -0.07685141137231188
upperback 4.972215754899207 -0.324254139598614 1.5984487172010748
thorax 4.60814338469885 -0.20314854725138184 1.6839746501332333
lowerneck -12.437501669466025 1.0793149022750554 -1.3370752484218158
upperneck 30.61409517137951 1.8655342090436149 0.04073296321153186
head 12.106095830471585 0.6755728163608454 0.5041781746411498
lclavicle -1.1859574208182253e-17 -8.162223926744473e-16
lhumerus -17.56890121637781 -10.658500777824417 90.94079976591773
lradius 26.256893632104358
lwrist 7.100366864316901
lhand -24.49300488007118 -2.8643348316367323
lfingers 7.125019999999999
lthumb 2.0011950992665306 27.105995115225184
rclavicle -1.1859574208182253e-17 -8.162223926744473e-16
rhumerus -19.129200531217126 -6.566055737561459 -84.18130271145681
rradius 30.69419895886469
rwrist 26.489600696726605
rhand -18.23920104906699 -26.97809621116656
rfingers 7.125019999999999
rthumb 8.039498953324413 -56.80519636788182
36
root 0.624323734194472 17.58506934042888 -14.457037828305252 9.535116139277923 -2.2968202399191826 -1.1006205048405724
lfemur -19.782050564409683 6.247200028222887 -19.29876688576911
ltibia 23.75680490408671
lfoot -10.849158629267208 7.673028905877015
ltoes 6.060020044635909
rfemur -21.845791069355116 -1.9568321021464772 19.465379632300984
rtibia 26.821556557596306
rfoot -13.620824297043166 -4.180527766270016
rtoes 11.7235385256133
lowerback 1.2841815127536265 -0.20669991342726285 -0.05809390662034486
upperback 5.136995775332935 -0.3514128241734524 1.5929364702964244
thorax 4.5280879924779285 -0.22105048003557806 1.707590972545153
lowerneck -12.526251277660151 1.1828968748496491 -1.2777699514015692
upperneck 29.933819582731303 2.066504520511848 -0.17245908456641224
head 11.935439280052897 0.7810335092539469 0.4274657901832321
lclavicle -1.0889280756466497e-17 -8.144525396357532e-16
lhumerus -17.15419568614162 -11.065047941522538 90.85246167431447
lradius 26.461174874036345
lwrist 7.657417575647341
lhand -24.595257762435967 -2.779499404961988
lfingers 7.125019999999999
lthumb 1.9657050134707017 27.200484233512103
rclavicle -1.1034465618373514e-17 -8.151473357427089e-16
rhumerus -18.82756194448824 -6.133691124978462 -84.28464805244344
rradius 31.042613841141087
rwrist 26.11420162042401
rhand -18.28391180347116 -26.940426194724367
rfingers 7.125019999999999
rthumb 8.001373593767456 -56.771221766109015
37
root 0.6327792827711463 17.603632330118863 -14.571907296359877 10.225798730143795 -2.3044204013492546 -1.0761104625509759
lfemur -21.071837490602235 6.303454235245541 -19.380904267827493
ltibia 24.34094429673695
lfoot -10.88515947315283 7.565637874949976
ltoes 6.27187513932987
rfemur -23.741966660811087 -1.9133013434522264 19.455273819721405
rtibia 27.628057326352565
rfoot -13.56177716297038 -4.177940351848299
rtoes 11.877106266175183
lowerback 1.497223748900077 -0.21087044536815344 -0.018062055265566257
upperback 5.2331231659307935 -0.3638860846384241 1.575359642239759
thorax 4.424150634376517 -0.2279160963201929 1.7124832704620077
lowerneck -12.644225610964424 1.2753400285235397 -1.2231854113547191
upperneck 29.22794125894594 2.2608530950585126 -0.38961791540771196
head 11.745157373457292 0.8837854150184231 0.3469775615744998
lclavicle -1.0924980530678324e-17 -8.144965361122658e-16
lhumerus -16.775906686662896 -11.398336539966383 90.71218319648409
lradius 26.418094408521362
lwrist 7.853095834405036
lhand -24.68768470155349 -2.6923806787856863
lfingers 7.125019999999999
lthumb 2.000157372985129 27.311960511435515
rclavicle -1.1068128888649419e-17 -8.151919101644871e-16
rhumerus -18.70017755203271 -5.981371074300529 -84.28462310383125
rradius 31.1225880120395
rwrist 25.973657241667162
rhand -18.300614221382812 -26.89604555654261
rfingers 7.125019999999999
rthumb 7.993724687823451 -56.730068450415025
38
root 0.6387783591509889 17.624621754000433 -14.675041224669755 10.775148584262528 -2.351496682475393 -1.0245489438408748
lfemur -22.07737775924545 6.363728870175303 -19.469273370270596
ltibia 24.87038973031301
lfoot -10.902542092394498 7.4627444450701335
ltoes 6.4111637234661965
rfemur -25.375864957179445 -1.8695032710904311 19.387287305813473
rtibia 28.392479750829505
rfoot -13.533898724548418 -4.156030133860632
rtoes 12.009875854948255
lowerback 1.6687627938715655 -0.19548013109905216 -0.012549296709736812
upperback 5.318707121006948 -0.3452077114420192 1.5412499310989527
thorax 4.319023666205593 -0.2204050823321591 1.7146473653684224
lowerneck -12.758444911932918 1.3815704569511444 -1.1734047665740244
upperneck 28.56778640704972 2.4569441755469 -0.6029457767511999
head 11.550767456225993 0.9884919879965691 0.2648425992664848
lclavicle -1.0948477621350418e-17 -8.145304404358329e-16
lhumerus -16.44546419269149 -11.687286838491731 90.51296140950771
lradius 26.229583311390584
lwrist 7.88437809266934
lhand -24.753718987003946 -2.6122993596623276
lfingers 7.125019999999999
lthumb 2.0607644001189036 27.428136041403764
rclavicle -1.1102485456947278e-17 -8.152374492668284e-16
rhumerus -18.736631269819302 -6.101973981161752 -84.17679745738091
rradius 30.97886779678295
rwrist 26.024506417743975
rhand -18.30134166718205 -26.84009803181305
rfingers 7.125019999999999
rthumb 7.996079092399493 -56.68270429660528
